<svg t="1741052093019" class="icon" viewBox="0 0 1024 1024" version="1.1" xmlns="http://www.w3.org/2000/svg" p-id="9491" width="200" height="200"><path d="M181.333333 149.333333A96.106667 96.106667 0 0 0 85.333333 245.333333v405.333334C85.333333 703.594667 128.405333 746.666667 181.333333 746.666667h124.885334a73.984 73.984 0 0 1-7.338667-37.781334c0.725333-9.258667 3.264-18.069333 7.125333-26.218666H181.333333c-17.642667 0-32-14.357333-32-32v-405.333334c0-17.642667 14.357333-32 32-32h661.333334c17.642667 0 32 14.357333 32 32v405.333334c0 17.642667-14.357333 32-32 32H832v64h10.666667c52.928 0 96-43.072 96-96v-405.333334C938.666667 192.405333 895.594667 149.333333 842.666667 149.333333h-661.333334z m320 106.666667C366.208 256 256 366.208 256 501.333333a32 32 0 1 0 64 0c0-100.522667 80.810667-181.333333 181.333333-181.333333s181.333333 80.810667 181.333334 181.333333a32 32 0 1 0 64 0C746.666667 366.208 636.458667 256 501.333333 256z m0 106.666667c-76.202667 0-138.666667 62.464-138.666666 138.666666a32 32 0 1 0 64 0c0-41.6 33.066667-74.666667 74.666666-74.666666s74.666667 33.066667 74.666667 74.666666a32 32 0 1 0 64 0c0-76.202667-62.464-138.666667-138.666667-138.666666z m-0.490666 106.218666A32 32 0 0 0 469.333333 501.333333v254.250667l-71.68-61.717333a32 32 0 1 0-48.64 41.6l138.688 162.133333c0.234667 0.256 0.512 0.426667 0.746667 0.682667A97.706667 97.706667 0 0 0 567.466667 938.666667H661.333333a128 128 0 0 0 128-128v-160a32 32 0 0 0-32.490666-32.448A32 32 0 0 0 725.333333 650.666667v10.666666h-21.333333v-21.333333a32 32 0 0 0-32.490667-32.448A32 32 0 0 0 640 640v21.333333h-21.333333v-32a32 32 0 0 0-32.490667-32.448A32 32 0 0 0 554.666667 629.333333V661.333333h-21.333334v-160a32 32 0 0 0-32.490666-32.448z" p-id="9492" fill="#333333"></path></svg>